<svg aria-hidden="true" style="position:absolute;width:0;height:0;overflow:hidden" xmlns="http://www.w3.org/2000/svg">
   <defs>
      <symbol id="logo-ice-1" viewBox="0 0 32 32">
         <path fill="#d41442" style="fill: var(--color1, #d41442)"
            d="M11.518-0.171c-0.158 0.037-0.278 0.085-0.412 0.116-0.219 0.052-0.281 0.049-0.505 0.089-0.507 0.090-1.022 0.449-1.616 0.628l-1.533 0.777c-0.315 0.189-0.373 0.346-0.684 0.504-0.477 0.243-0.987 0.573-1.372 0.938-0.239 0.226-0.975 0.898-1.224 1.020l-0.697 0.425c-0.138 0.112-0.188 0.131-0.325 0.269l-0.826 0.89c-0.369 0.503-0.359 1.074-0.671 1.639-0.207 0.374-0.408 0.259-0.76 0.428-0.267 1.145-0.133 0.507-0.46 0.926-0.223 0.285-0.208 0.614-0.296 0.958-0.071 0.274-0.084 0.165-0.199 0.263l-0.368 0.358c-0.076 0.048 0.003 0.026-0.14 0.058-0.071 0.016-0.115 0.011-0.187 0.011v11.748h0.33c0.037 0.446 0.48 0.319 0.564 0.69 0.070 0.309 0.089 0.694 0.296 0.958 0.32 0.409 0.195-0.213 0.46 0.926 0.343 0.080 0.549 0.053 0.717 0.339 0.475 0.807 0.242 1.482 1.094 2.14 0.197 0.152 0.112 0.056 0.265 0.263 0.343 0.462 0.287 0.282 0.542 0.514 0.132 0.12 0.1 0.184 0.21 0.319 0.167 0.205 0.365 0.203 0.578 0.478 0.105 0.135 0.11 0.171 0.238 0.29 0.274 0.256 0.195 0.112 0.596 0.526 0.099 0.102 0.178 0.152 0.301 0.227 0.319 0.195 0.579 0.524 0.92 0.664 0.192 0.079 0.202 0.026 0.388 0.14 0.383 0.234 0.388 0.392 0.99 0.661 0.427 0.191 0.483 0.419 1.081 0.569 1.371 0.344 0.853 0.923 1.255 0.923h0.396c0-0.311 0.090-0.428 0.165-0.764 0.058-0.259-0.006-0.4-0.027-0.627-0.040-0.458-0.066-0.884-0.253-1.2-0.335-0.566-1.293-0.781-1.81-1.16-2.258-1.657-2.102-3.27-2.102-5.753 0-1.432 0.28-1.674-0.726-2.442-1.439-1.098-1.572-2.995-0.315-4.275 0.737-0.75 0.979-0.534 0.975-2.061-0.006-2.153 0.736-4.002 1.979-5.611 0.559-0.722 1.633-1.678 2.367-2.188 0.865-0.601 3.065-1.574 4.498-1.574 2.279 0 3.714 0.089 5.663 1.267l1.597 1.109c0.483 0.373 0.976 0.906 1.357 1.415 1.054 1.407 1.729 3.129 1.873 4.925 0.065 0.813-0.159 1.663 0.48 2.292l0.703 0.683c0.23 0.29 0.347 0.43 0.516 0.804 0.797 1.758-0.67 2.821-1.417 3.559-0.292 0.289-0.401 0.42-0.414 0.972-0.021 0.912 0.003 1.858 0.003 2.775 0 1.185-0.005 1.463-0.418 2.288-0.305 0.609-0.682 1.178-1.203 1.569-1.601 1.202-2.471 0.491-2.471 3.007 0 0.182 0.222 0.515 0.33 0.594 0.34-0.091 0.303-0.363 1.103-0.547 0.51-0.117 0.655-0.472 1.049-0.601 0.333-0.109 0.304-0.062 0.559-0.232l0.152-0.112c0.011-0.009 0.024-0.022 0.034-0.032s0.024-0.023 0.034-0.032c0.248-0.223 0.564-0.296 0.812-0.508 0.172-0.147 0.245-0.288 0.448-0.41 0.617-0.372 0.418-0.423 0.922-0.728 0.239-0.145 1.57-1.554 1.662-1.704 0.178-0.29 0.209-0.194 0.438-0.42 0.215-0.212 0.169-0.302 0.376-0.482 0.694-0.605 0.419-0.65 0.991-1.451 0.126-0.177 0.198-0.4 0.309-0.549 0.547-0.732 0.476-1.047 0.689-1.357 0.331-0.482 0.523-0.916 0.583-1.529 0.055-0.574 0.43-0.496 0.636-1.938 0.064-0.446 0.059-1.124 0.094-1.556 0.017-0.211 0.035-0.36 0.053-0.477v-2.988c-0.023-0.133-0.044-0.272-0.056-0.428-0.039-0.483-0.061-1.204-0.117-1.665-0.081-0.658-0.14-0.891-0.458-1.324-0.238-0.323-0.141-1.179-0.704-1.936-0.207-0.278-0.12-0.659-0.982-1.724-0.535-0.662-1.037-1.385-1.646-1.984-0.797-0.783-1.282-1.442-2.231-2.192-0.24-0.189-0.183-0.272-0.47-0.454l-1.032-0.75c-0.373-0.231-0.698-0.49-1.117-0.665-0.31-0.129-0.304-0.13-0.56-0.298-0.476-0.313-1.069-0.416-1.557-0.687-0.1-0.055-0.184-0.113-0.297-0.165-0.231-0.106-0.447-0.136-0.734-0.19-0.48-0.091-0.632-0.042-0.632-0.49h-8.646v0.33z">
         </path>
         <path fill="#d31945" style="fill: var(--color2, #d31945)"
            d="M8.284 22.138c0 1.989-0.278 3.525 0.874 4.67 0.579 0.576 1.093 1.006 2.228 1.006h9.636c1.151 0 2.526-1.215 2.69-2.393 0.128-0.923 0.015-1.433 0.016-2.36 0.002-1.838 0.111-1.914-1.254-1.914-1.22 0-0.348 1.722-0.878 2.884-0.175 0.385-0.347 0.552-0.624 0.828-0.641 0.641-1.133 0.973-2.129 0.973-1.021 0-2.148-0.963-2.463-1.695-0.506-1.174 0.004-2.191-0.42-2.683-0.453-0.525-1.624-0.25-2.133-0.25-0.21 0-0.34-0.059-0.66-0.059h-1.716c-0.346 0-0.496 0.056-0.73 0.063-0.969 0.028-2.438-0.545-2.438 0.927z">
         </path>
         <path fill="#d51c4a" style="fill: var(--color3, #d51c4a)"
            d="M7.954 19.3h7.92c0.664 0 1.599-0.215 1.931 0.247 0.631 0.88-0.756 4.307 1.171 4.307 1.69 0 0.472-3.385 1.013-4.267 0.18-0.294 0.389-0.293 0.833-0.289l3.497-0.001c1.996-0.152 1.484-1.977 0.267-1.977h-17.095c-1.374 0-1.716 1.98 0.462 1.98z">
         </path>
         <path fill="#d31945" style="fill: var(--color2, #d31945)"
            d="M8.944 15.406h14.191c0.306 0 0.526-0.098 0.657-0.267 0.098-0.128 0.207-0.487 0.199-0.718-0.016-0.463-0.175-1.207-0.267-1.65-0.166-0.807-0.329-1.76-1.17-1.514-0.479 0.14-2.288 2.17-6.416 2.17-2.081 0-2.979-0.296-4.725-1.017-1.731-0.715-2.465-2.494-3.014 0.274-0.169 0.849-0.785 2.723 0.545 2.723z">
         </path>
         <path fill="#d41442" style="fill: var(--color1, #d41442)"
            d="M10.396 9.136c0 0.657 0.324 0.79 1.013 1.165 0.493 0.269 0.85 0.459 1.372 0.674 1.956 0.806 4.777 0.745 6.762-0.085 0.255-0.107 0.422-0.204 0.666-0.324 0.749-0.372 1.73-0.795 1.474-1.49-0.181-0.49-1.833-1.417-2.353-1.679-0.668-0.336-1.569-0.618-2.342-0.694-2.24-0.219-3.816 0.29-5.508 1.469-0.269 0.187-1.083 0.623-1.083 0.963z">
         </path>
         <path fill="#d31945" style="fill: var(--color2, #d31945)"
            d="M12.376 30.256c0 1.049 0.253 1.759 0.264 2.244h6.798c0.116-0.496 0.264-1.53 0.264-2.112 0-1.118-1.517-0.656-2.509-0.658-0.834-0.001-0.489-0.151-1.725-0.012-1.158 0.13-3.092-0.495-3.092 0.538z">
         </path>
      </symbol>
      <symbol id="arrov-right-1" viewBox="0 0 22 32">
         <path fill="none" stroke-linejoin="round" stroke-linecap="round" stroke-width="6.4"
            d="M5.574 3.2 18.454 16 5.574 28.8" />
      </symbol>
      <symbol id="icon-arrow-right2" viewBox="0 0 32 32">
      <path d="M19.414 27.414l10-10c0.781-0.781 0.781-2.047 0-2.828l-10-10c-0.781-0.781-2.047-0.781-2.828 0s-0.781 2.047 0 2.828l6.586 6.586h-19.172c-1.105 0-2 0.895-2 2s0.895 2 2 2h19.172l-6.586 6.586c-0.39 0.39-0.586 0.902-0.586 1.414s0.195 1.024 0.586 1.414c0.781 0.781 2.047 0.781 2.828 0z"></path>
      </symbol>
      <symbol id="quote-1" viewBox="0 0 43 32">
         <path fill="#e1e1e1" style="fill:var(--color1, #e1e1e1)"
            d="M32.014 0c1.928 0 3.75.52 5.464 1.561s3.107 2.537 4.178 4.488c1.029 1.951 1.543 4.25 1.543 6.894s-.643 5.225-1.928 7.74c-.429.91-1.2 2.081-2.315 3.512a63.65 63.65 0 0 1-3.214 3.707L31.692 32l-2.893-4.813a22.225 22.225 0 0 0 5.306-4.646l.03-.037c1.542-1.821 2.314-3.49 2.314-5.008 0-.781-.171-1.41-.514-1.886a8.361 8.361 0 0 1-5.014 1.626c-1.328 0-2.593-.412-3.793-1.236a8.638 8.638 0 0 1-2.935-3.078l-.022-.043c-.771-1.258-1.157-2.558-1.157-3.902 0-1.518.45-2.97 1.35-4.358a10.313 10.313 0 0 1 3.364-3.356l.044-.025C29.142.414 30.556.002 32.014.002zM8.936 0c1.928 0 3.75.52 5.464 1.561s3.107 2.536 4.178 4.488c1.029 1.951 1.543 4.25 1.543 6.894 0 1.864-.236 3.534-.707 5.008-.472 1.518-1.286 3.1-2.443 4.748-1.114 1.561-2.164 2.862-3.15 3.902-.986 1.084-2.7 2.883-5.143 5.398l-2.893-4.813a22.225 22.225 0 0 0 5.306-4.646l.03-.037c1.542-1.821 2.314-3.49 2.314-5.008 0-.781-.172-1.41-.514-1.886a8.361 8.361 0 0 1-5.014 1.626c-1.328 0-2.593-.412-3.793-1.236a8.638 8.638 0 0 1-2.935-3.078l-.022-.043C.386 11.62 0 10.32 0 8.976c0-1.518.429-2.97 1.286-4.358A10.313 10.313 0 0 1 4.65 1.262l.045-.025C6.065.413 7.479.001 8.937.001z" />
      </symbol>
      <symbol id="burger-1" viewBox="0 0 46 32">
         <path fill="none" stroke="#e1e1e1" style="stroke:var(--color1, #e1e1e1)" stroke-width="2.286"
            d="M0 2.286h45.714M0 16h45.714M0 29.714h45.714" />
      </symbol>
      <symbol id="icon-close" viewBox="0 0 32 32">
         <path fill="none" stroke="" style="" stroke-linejoin="miter" stroke-linecap="butt" stroke-miterlimit="4" stroke-width="2" d="M2.519 2l26.963 28"></path>
         <path fill="none" stroke="" style="" stroke-linejoin="miter" stroke-linecap="butt" stroke-miterlimit="4" stroke-width="2" d="M2 29.481l28-26.963"></path>
      </symbol>
      <symbol id="git-icon-1" viewBox="0 0 32 32">
         <path fill="#fff" style="fill: var(--color1, #fff)"
            d="M16 0.941c-8.272 0-15.059 6.789-15.059 15.059 0 7.059 4.954 13.47 11.53 15.059v-4.982c-0.651 0.144-1.251 0.147-1.915-0.048-0.89-0.264-1.613-0.856-2.149-1.76-0.342-0.576-0.949-1.203-1.581-1.157l-0.155-1.758c1.368-0.117 2.55 0.834 3.253 2.014 0.312 0.525 0.672 0.832 1.133 0.968 0.445 0.131 0.923 0.069 1.482-0.128 0.139-1.117 0.651-1.536 1.037-2.123-3.922-0.586-5.485-2.667-6.106-4.309-0.822-2.181-0.381-4.906 1.072-6.627 0.029-0.032 0.080-0.122 0.061-0.182-0.667-2.014 0.144-3.68 0.176-3.856 0.768 0.227 0.893-0.229 3.341 1.258l0.422 0.254c0.176 0.106 0.122 0.045 0.299 0.032 0.943-0.266 2.029-0.428 3.15-0.445l0.010-0c1.147 0.018 2.247 0.183 3.294 0.478l-0.090-0.022 0.138 0.014c-0.013-0.002 0.037-0.010 0.12-0.059 3.056-1.851 2.947-1.246 3.766-1.512 0.030 0.176 0.832 1.869 0.171 3.856-0.088 0.275 2.651 2.784 1.133 6.811-0.621 1.643-2.184 3.723-6.106 4.309 0.502 0.768 1.107 1.174 1.104 2.755v6.219c6.576-1.589 11.53-8 11.53-15.059 0-8.272-6.787-15.059-15.059-15.059z">
         </path>
      </symbol>
      <symbol id="fb-icon-1" viewBox="0 0 16 32">
         <path fill="#fff" style="fill:var(--color2, #fff)"
            d="M14.266 15.97H10.09v15.39H3.762V15.968H.754V10.56h3.008V7.062C3.762 4.558 4.946.64 10.146.64l4.688.019v5.25h-3.402c-.557 0-1.342.282-1.342 1.475v3.184h4.73l-.554 5.4z" />
      </symbol>
      <symbol id="telegram-1" viewBox="0 0 40 32">
         <path fill="#fff" style="fill:var(--color2, #fff)"
            d="m16.206 20.75-.636 8.34c.908 0 1.302-.366 1.774-.802l4.26-3.8 8.83 6.034c1.62.84 2.76.398 3.196-1.39l5.796-25.346h.002c.514-2.236-.866-3.108-2.444-2.56L2.92 13.398c-2.324.84-2.29 2.052-.396 2.6l8.71 2.528 20.23-11.814c.952-.588 1.816-.264 1.104.326L16.206 20.75z" />
      </symbol>

      <symbol id="icon-Vector-1" viewBox="0 0 22 32">
<path stroke-linejoin="round" stroke-linecap="round" stroke-miterlimit="4.5" stroke-width="8" d="M4.488 3.2l13.7 12.8-13.7 12.8"></path>
</symbol>


<symbol id="icon-Vector-X" viewBox="0 0 32 32">
<path d="M32 3.223l-3.223-3.223-12.777 12.777-12.777-12.777-3.223 3.223 12.777 12.777-12.777 12.777 3.223 3.223 12.777-12.777 12.777 12.777 3.223-3.223-12.777-12.777 12.777-12.777z"></path>
</symbol>
<symbol id="icon-person-black" viewBox="0 0 32 32">
<path d="M16 16c2.947 0 5.333-2.387 5.333-5.333s-2.387-5.333-5.333-5.333c-2.947 0-5.333 2.387-5.333 5.333s2.387 5.333 5.333 5.333zM16 18.667c-3.56 0-10.667 1.787-10.667 5.333v1.333c0 0.733 0.6 1.333 1.333 1.333h18.667c0.733 0 1.333-0.6 1.333-1.333v-1.333c0-3.547-7.107-5.333-10.667-5.333z"></path>
</symbol>
<symbol id="icon-phone-black" viewBox="0 0 32 32">
<path d="M24.882 19.773l-3.268-0.373c-0.785-0.090-1.557 0.18-2.11 0.733l-2.367 2.367c-3.641-1.853-6.626-4.825-8.478-8.478l2.38-2.38c0.553-0.553 0.823-1.325 0.733-2.11l-0.373-3.242c-0.154-1.299-1.248-2.277-2.56-2.277h-2.226c-1.454 0-2.663 1.209-2.573 2.663 0.682 10.987 9.469 19.761 20.443 20.443 1.454 0.090 2.663-1.119 2.663-2.573v-2.226c0.013-1.3-0.965-2.393-2.264-2.547z"></path>
</symbol>
<symbol id="icon-email-black" viewBox="0 0 32 32">
<path d="M26.667 5.333h-21.333c-1.467 0-2.653 1.2-2.653 2.667l-0.013 16c0 1.467 1.2 2.667 2.667 2.667h21.333c1.467 0 2.667-1.2 2.667-2.667v-16c0-1.467-1.2-2.667-2.667-2.667zM26.133 11l-9.427 5.893c-0.427 0.267-0.987 0.267-1.413 0l-9.427-5.893c-0.333-0.213-0.533-0.573-0.533-0.96 0-0.893 0.973-1.427 1.733-0.96l8.933 5.587 8.933-5.587c0.76-0.467 1.733 0.067 1.733 0.96 0 0.387-0.2 0.747-0.533 0.96z"></path>
</symbol>



   </defs>
</svg>