<?xml version="1.0" standalone="no"?>
<!DOCTYPE svg PUBLIC "-//W3C//DTD SVG 20010904//EN"
 "http://www.w3.org/TR/2001/REC-SVG-20010904/DTD/svg10.dtd">
<svg version="1.0" xmlns="http://www.w3.org/2000/svg"
 width="700.000000pt" height="700.000000pt" viewBox="0 0 700.000000 700.000000"
 preserveAspectRatio="xMidYMid meet">
<metadata>
Created by potrace 1.14, written by Peter Selinger 2001-2017
</metadata>
<g transform="translate(0.000000,700.000000) scale(0.100000,-0.100000)"
fill="#000000" stroke="none">
<path d="M3278 6996 c-1 -2 -39 -6 -83 -10 -398 -31 -840 -152 -1210 -332
-180 -87 -448 -247 -555 -331 -8 -6 -51 -40 -95 -74 -351 -273 -674 -652 -897
-1054 -48 -86 -148 -289 -148 -301 0 -2 -11 -27 -24 -56 -60 -133 -155 -432
-181 -569 -3 -13 -11 -58 -20 -99 -29 -147 -35 -193 -52 -370 -15 -163 -8
-592 12 -711 2 -13 6 -46 9 -74 21 -182 109 -547 165 -680 5 -11 25 -65 46
-120 63 -166 249 -531 312 -610 4 -6 34 -49 65 -95 171 -256 431 -533 712
-758 89 -72 367 -262 382 -262 4 0 15 -6 23 -14 46 -40 531 -266 571 -266 10
0 4 71 -12 145 -26 122 -76 172 -258 263 -167 83 -230 128 -350 251 -179 183
-241 329 -276 645 -3 26 -4 321 -2 696 1 139 -20 173 -195 324 -254 218 -296
545 -107 821 15 22 56 67 91 100 159 151 161 154 178 230 6 28 13 127 16 220
2 94 7 180 9 192 3 12 7 49 11 81 3 33 10 74 15 91 5 17 7 31 5 31 -3 0 0 11
5 25 5 14 12 36 14 48 12 70 89 269 146 382 150 296 319 502 605 734 167 135
312 218 535 308 118 47 317 110 385 120 16 3 50 9 75 14 43 8 507 4 580 -5 19
-3 55 -7 80 -10 90 -10 215 -38 319 -72 107 -35 353 -151 400 -189 14 -11 62
-45 106 -75 310 -209 430 -321 583 -547 150 -220 283 -538 323 -772 26 -148
31 -197 34 -341 2 -85 6 -175 9 -200 11 -80 51 -143 152 -242 52 -51 110 -113
128 -138 126 -169 161 -353 100 -511 -33 -86 -109 -185 -247 -321 -80 -80
-145 -153 -154 -175 -15 -34 -17 -91 -18 -483 -1 -245 -5 -467 -9 -495 -22
-158 -140 -387 -266 -516 -51 -52 -224 -179 -244 -179 -14 0 -219 -104 -253
-129 -50 -37 -99 -130 -108 -211 -4 -30 -8 -65 -10 -77 -2 -12 -1 -23 1 -26
12 -12 358 146 508 232 49 28 91 51 93 51 10 0 268 180 353 247 152 119 324
280 450 422 36 41 70 79 76 85 65 68 263 353 352 508 46 79 172 331 172 342 0
3 11 29 24 58 57 127 151 421 182 573 17 81 54 301 59 350 4 33 9 71 11 85 9
46 11 524 4 605 -15 153 -21 210 -25 225 -2 8 -7 35 -10 60 -17 129 -80 384
-136 552 -348 1037 -1166 1855 -2204 2206 -167 56 -419 119 -555 137 -19 3
-46 7 -60 10 -13 2 -52 7 -86 11 -33 3 -74 8 -90 10 -32 5 -540 14 -546 10z"/>
<path d="M3437 5544 c-1 -1 -38 -4 -82 -7 -103 -8 -263 -39 -340 -67 -33 -12
-75 -26 -94 -32 -106 -31 -534 -292 -609 -371 -29 -30 -34 -43 -35 -83 0 -53
22 -108 57 -137 56 -47 317 -187 446 -240 213 -88 439 -130 705 -131 363 0
626 59 930 211 224 112 290 157 319 217 52 110 -15 188 -319 373 -231 140
-385 200 -632 247 -62 12 -336 28 -346 20z"/>
<path d="M1993 4548 c-56 -15 -104 -100 -138 -245 -104 -435 -104 -572 -3
-645 l33 -23 1611 -2 c1144 -2 1620 0 1643 8 62 22 102 99 106 204 2 43 -16
170 -39 280 -3 17 -9 46 -12 65 -3 19 -8 38 -10 41 -2 3 -6 21 -9 40 -11 64
-37 144 -62 191 -42 77 -125 104 -198 66 -11 -6 -83 -53 -160 -104 -392 -260
-743 -360 -1260 -358 -366 1 -548 38 -915 186 -143 58 -186 81 -340 183 -171
113 -200 126 -247 113z"/>
<path d="M1549 3196 c-87 -31 -149 -113 -149 -197 0 -109 93 -189 248 -214 35
-6 1557 -7 2042 -2 100 2 120 -1 156 -20 85 -45 98 -120 79 -443 -15 -243 -7
-348 34 -428 38 -75 116 -115 212 -107 79 7 124 42 154 120 32 85 34 128 21
525 -7 210 1 262 54 314 l30 31 358 2 c556 4 608 6 672 31 99 39 150 105 150
192 0 73 -48 147 -121 186 -33 18 -106 19 -1969 21 -1558 2 -1942 0 -1971 -11z"/>
<path d="M1940 2364 c-57 -17 -97 -58 -115 -116 -17 -58 -25 -536 -11 -684 17
-173 84 -322 196 -434 122 -123 218 -178 360 -206 19 -4 534 -7 1144 -8 842
-1 1124 2 1170 11 230 46 467 286 503 510 12 74 4 785 -10 840 -20 79 -55 93
-226 94 -108 1 -133 -11 -165 -76 -17 -34 -20 -64 -22 -224 -2 -202 -6 -240
-35 -314 -28 -72 -66 -122 -157 -209 -146 -139 -239 -185 -397 -195 -66 -4
-107 -1 -154 11 -169 43 -351 188 -430 341 -41 80 -53 152 -58 340 -2 99 -9
194 -14 212 -13 42 -68 89 -121 104 -24 7 -81 12 -128 11 -47 -1 -155 -1 -240
-1 -85 0 -258 -1 -385 -2 -356 -2 -421 -2 -545 4 -82 4 -128 1 -160 -9z"/>
<path d="M2877 514 c-1 -1 -18 -4 -37 -7 -48 -6 -96 -32 -116 -62 -14 -22 -16
-44 -11 -143 7 -132 16 -203 26 -214 8 -9 158 -38 270 -54 25 -3 57 -8 71 -10
163 -25 682 -25 842 1 13 2 46 7 73 10 73 10 87 13 120 19 17 3 57 11 91 17
33 6 65 13 71 17 12 8 21 60 29 184 8 116 0 154 -41 194 -51 49 -132 57 -370
39 -60 -5 -139 -7 -175 -5 -68 4 -231 4 -410 0 -58 -2 -152 0 -210 5 -106 7
-219 12 -223 9z"/>
</g>
</svg>
